<mxfile host="65bd71144e">
    <diagram id="YS6Nf9egMNsSZ0guFgD5" name="Page-1">
        <mxGraphModel dx="496" dy="784" grid="1" gridSize="10" guides="1" tooltips="1" connect="1" arrows="1" fold="1" page="1" pageScale="1" pageWidth="827" pageHeight="1169" math="0" shadow="0">
            <root>
                <mxCell id="0"/>
                <mxCell id="1" parent="0"/>
                <mxCell id="2" value="Ornitorrinco" style="html=1;" vertex="1" parent="1">
                    <mxGeometry x="220" y="380" width="110" height="50" as="geometry"/>
                </mxCell>
                <mxCell id="3" value="Gato" style="html=1;" vertex="1" parent="1">
                    <mxGeometry x="30" y="380" width="110" height="50" as="geometry"/>
                </mxCell>
                <mxCell id="4" value="Pollo" style="html=1;" vertex="1" parent="1">
                    <mxGeometry x="400" y="380" width="110" height="50" as="geometry"/>
                </mxCell>
                <mxCell id="5" value="Ovíparo" style="html=1;" vertex="1" parent="1">
                    <mxGeometry x="359" y="210" width="110" height="50" as="geometry"/>
                </mxCell>
                <mxCell id="6" value="Mamífero" style="html=1;" vertex="1" parent="1">
                    <mxGeometry x="60" y="210" width="110" height="50" as="geometry"/>
                </mxCell>
                <mxCell id="7" value="Animal" style="html=1;" vertex="1" parent="1">
                    <mxGeometry x="210" y="60" width="110" height="50" as="geometry"/>
                </mxCell>
                <mxCell id="8" value="" style="endArrow=diamondThin;endFill=1;endSize=24;html=1;entryX=0.25;entryY=1;entryDx=0;entryDy=0;exitX=0.5;exitY=0;exitDx=0;exitDy=0;" edge="1" parent="1" source="6" target="7">
                    <mxGeometry width="160" relative="1" as="geometry">
                        <mxPoint x="180" y="400" as="sourcePoint"/>
                        <mxPoint x="340" y="400" as="targetPoint"/>
                    </mxGeometry>
                </mxCell>
                <mxCell id="9" value="" style="endArrow=diamondThin;endFill=1;endSize=24;html=1;exitX=0.5;exitY=0;exitDx=0;exitDy=0;entryX=0.75;entryY=1;entryDx=0;entryDy=0;" edge="1" parent="1" source="5" target="7">
                    <mxGeometry width="160" relative="1" as="geometry">
                        <mxPoint x="180" y="400" as="sourcePoint"/>
                        <mxPoint x="300" y="120" as="targetPoint"/>
                    </mxGeometry>
                </mxCell>
                <mxCell id="10" value="" style="endArrow=diamondThin;endFill=1;endSize=24;html=1;entryX=0.25;entryY=1;entryDx=0;entryDy=0;exitX=0.5;exitY=0;exitDx=0;exitDy=0;" edge="1" parent="1" source="3" target="6">
                    <mxGeometry width="160" relative="1" as="geometry">
                        <mxPoint x="88" y="370" as="sourcePoint"/>
                        <mxPoint x="340" y="400" as="targetPoint"/>
                    </mxGeometry>
                </mxCell>
                <mxCell id="11" value="" style="endArrow=diamondThin;endFill=1;endSize=24;html=1;entryX=0.75;entryY=1;entryDx=0;entryDy=0;" edge="1" parent="1" source="2" target="6">
                    <mxGeometry width="160" relative="1" as="geometry">
                        <mxPoint x="180" y="400" as="sourcePoint"/>
                        <mxPoint x="340" y="400" as="targetPoint"/>
                    </mxGeometry>
                </mxCell>
                <mxCell id="12" value="" style="endArrow=diamondThin;endFill=1;endSize=24;html=1;entryX=0.25;entryY=1;entryDx=0;entryDy=0;" edge="1" parent="1" source="2" target="5">
                    <mxGeometry width="160" relative="1" as="geometry">
                        <mxPoint x="180" y="400" as="sourcePoint"/>
                        <mxPoint x="340" y="400" as="targetPoint"/>
                    </mxGeometry>
                </mxCell>
                <mxCell id="13" value="" style="endArrow=diamondThin;endFill=1;endSize=24;html=1;entryX=0.75;entryY=1;entryDx=0;entryDy=0;" edge="1" parent="1" target="5">
                    <mxGeometry width="160" relative="1" as="geometry">
                        <mxPoint x="442" y="380" as="sourcePoint"/>
                        <mxPoint x="340" y="400" as="targetPoint"/>
                    </mxGeometry>
                </mxCell>
            </root>
        </mxGraphModel>
    </diagram>
</mxfile>
